<mxfile host="65bd71144e">
    <diagram id="tBuqHqILe-RQdP_5Gdus" name="client_credentials">
        <mxGraphModel dx="1311" dy="762" grid="1" gridSize="10" guides="1" tooltips="1" connect="1" arrows="1" fold="1" page="1" pageScale="1" pageWidth="850" pageHeight="1100" math="0" shadow="0">
            <root>
                <mxCell id="0"/>
                <mxCell id="1" parent="0"/>
                <mxCell id="11" style="edgeStyle=none;html=1;fontFamily=Roboto;fontSource=https%3A%2F%2Ffonts.googleapis.com%2Fcss%3Ffamily%3DRoboto;fillColor=#dae8fc;strokeColor=#6c8ebf;strokeWidth=1.2;" parent="1" source="7" target="9" edge="1">
                    <mxGeometry relative="1" as="geometry">
                        <Array as="points">
                            <mxPoint x="225" y="120"/>
                        </Array>
                    </mxGeometry>
                </mxCell>
                <mxCell id="26" style="edgeStyle=none;html=1;fontSize=10;fillColor=#dae8fc;strokeColor=#6c8ebf;strokeWidth=1.2;" parent="1" edge="1" target="10" source="7">
                    <mxGeometry relative="1" as="geometry">
                        <mxPoint x="74.5" y="240" as="sourcePoint"/>
                        <mxPoint x="614.5" y="240" as="targetPoint"/>
                        <Array as="points">
                            <mxPoint x="165" y="280"/>
                            <mxPoint x="675" y="280"/>
                        </Array>
                    </mxGeometry>
                </mxCell>
                <mxCell id="7" value="&lt;b&gt;&lt;font data-font-src=&quot;https://fonts.googleapis.com/css?family=Roboto&quot; face=&quot;Roboto&quot;&gt;Service A&lt;/font&gt;&lt;/b&gt;" style="shape=umlLifeline;perimeter=lifelinePerimeter;whiteSpace=wrap;html=1;container=1;collapsible=0;recursiveResize=0;outlineConnect=0;rounded=1;fillColor=#dae8fc;strokeColor=#6c8ebf;strokeWidth=1.3;" parent="1" vertex="1">
                    <mxGeometry x="25" y="40" width="100" height="280" as="geometry"/>
                </mxCell>
                <mxCell id="21" style="edgeStyle=none;html=1;fontSize=10;fillColor=#ffe6cc;strokeColor=#d79b00;strokeWidth=1.2;" parent="1" edge="1" target="7" source="9">
                    <mxGeometry relative="1" as="geometry">
                        <mxPoint x="344.5" y="180" as="sourcePoint"/>
                        <mxPoint x="74.5" y="180" as="targetPoint"/>
                        <Array as="points">
                            <mxPoint x="255" y="200"/>
                            <mxPoint x="115" y="200"/>
                        </Array>
                    </mxGeometry>
                </mxCell>
                <mxCell id="9" value="&lt;b&gt;&lt;font data-font-src=&quot;https://fonts.googleapis.com/css?family=Roboto&quot; face=&quot;Roboto&quot;&gt;Authorization Server&lt;/font&gt;&lt;/b&gt;" style="shape=umlLifeline;perimeter=lifelinePerimeter;whiteSpace=wrap;html=1;container=1;collapsible=0;recursiveResize=0;outlineConnect=0;rounded=1;fillColor=#ffe6cc;strokeColor=#d79b00;strokeWidth=1.3;" parent="1" vertex="1">
                    <mxGeometry x="360" y="40" width="130" height="280" as="geometry"/>
                </mxCell>
                <mxCell id="10" value="&lt;b&gt;&lt;font data-font-src=&quot;https://fonts.googleapis.com/css?family=Roboto&quot; face=&quot;Roboto&quot;&gt;Service B&lt;/font&gt;&lt;/b&gt;" style="shape=umlLifeline;perimeter=lifelinePerimeter;whiteSpace=wrap;html=1;container=1;collapsible=0;recursiveResize=0;outlineConnect=0;rounded=1;fillColor=#d5e8d4;strokeColor=#82b366;strokeWidth=1.3;" parent="1" vertex="1">
                    <mxGeometry x="725" y="40" width="100" height="280" as="geometry"/>
                </mxCell>
                <mxCell id="18" value="" style="group" parent="1" vertex="1" connectable="0">
                    <mxGeometry x="80" y="87" width="250" height="30" as="geometry"/>
                </mxCell>
                <mxCell id="19" value="Pass client_id + client_secret to /token" style="text;html=1;align=left;verticalAlign=middle;resizable=0;points=[];autosize=1;strokeColor=none;fillColor=default;fontFamily=Roboto;rounded=1;" parent="18" vertex="1">
                    <mxGeometry x="20" width="230" height="30" as="geometry"/>
                </mxCell>
                <mxCell id="20" value="1" style="ellipse;whiteSpace=wrap;html=1;aspect=fixed;rounded=1;fontFamily=Roboto;fontSource=https%3A%2F%2Ffonts.googleapis.com%2Fcss%3Ffamily%3DRoboto;fillColor=#dae8fc;strokeColor=#6c8ebf;fontStyle=1;fontSize=10;" parent="18" vertex="1">
                    <mxGeometry y="6" width="18" height="18" as="geometry"/>
                </mxCell>
                <mxCell id="25" value="" style="group" parent="1" vertex="1" connectable="0">
                    <mxGeometry x="253" y="167" width="170" height="30" as="geometry"/>
                </mxCell>
                <mxCell id="23" value="Return an &lt;b&gt;access_token&lt;/b&gt;" style="text;html=1;align=left;verticalAlign=middle;resizable=0;points=[];autosize=1;strokeColor=none;fillColor=default;fontFamily=Roboto;rounded=1;" parent="25" vertex="1">
                    <mxGeometry x="20" width="150" height="30" as="geometry"/>
                </mxCell>
                <mxCell id="24" value="2" style="ellipse;whiteSpace=wrap;html=1;aspect=fixed;rounded=1;fontFamily=Roboto;fontSource=https%3A%2F%2Ffonts.googleapis.com%2Fcss%3Ffamily%3DRoboto;fillColor=#ffe6cc;strokeColor=#d79b00;fontStyle=1;fontSize=10;" parent="25" vertex="1">
                    <mxGeometry y="6" width="18" height="18" as="geometry"/>
                </mxCell>
                <mxCell id="30" value="" style="group;fillColor=none;rounded=1;" parent="1" vertex="1" connectable="0">
                    <mxGeometry x="80" y="247" width="320" height="30" as="geometry"/>
                </mxCell>
                <mxCell id="28" value="Access the resource with the &lt;b&gt;access_token&lt;/b&gt; acquired" style="text;html=1;align=left;verticalAlign=middle;resizable=0;points=[];autosize=1;strokeColor=none;fillColor=default;fontFamily=Roboto;rounded=1;" parent="30" vertex="1">
                    <mxGeometry x="20" width="300" height="30" as="geometry"/>
                </mxCell>
                <mxCell id="29" value="3" style="ellipse;whiteSpace=wrap;html=1;aspect=fixed;rounded=1;fontFamily=Roboto;fontSource=https%3A%2F%2Ffonts.googleapis.com%2Fcss%3Ffamily%3DRoboto;fillColor=#dae8fc;strokeColor=#6c8ebf;fontStyle=1;fontSize=10;" parent="30" vertex="1">
                    <mxGeometry y="6" width="18" height="18" as="geometry"/>
                </mxCell>
            </root>
        </mxGraphModel>
    </diagram>
    <diagram name="authorization_code" id="GAjaUtYwCGypnC5HYcES">
        <mxGraphModel dx="1311" dy="762" grid="1" gridSize="10" guides="1" tooltips="1" connect="1" arrows="1" fold="1" page="1" pageScale="1" pageWidth="850" pageHeight="1100" math="0" shadow="0">
            <root>
                <mxCell id="hIb_HigyU_7V9YXV43p2-0"/>
                <mxCell id="hIb_HigyU_7V9YXV43p2-1" parent="hIb_HigyU_7V9YXV43p2-0"/>
                <mxCell id="hIb_HigyU_7V9YXV43p2-2" style="edgeStyle=none;html=1;fontFamily=Roboto;fontSource=https%3A%2F%2Ffonts.googleapis.com%2Fcss%3Ffamily%3DRoboto;fillColor=#dae8fc;strokeColor=#6c8ebf;strokeWidth=1.2;" edge="1" parent="hIb_HigyU_7V9YXV43p2-1" source="hIb_HigyU_7V9YXV43p2-4" target="hIb_HigyU_7V9YXV43p2-6">
                    <mxGeometry relative="1" as="geometry">
                        <Array as="points">
                            <mxPoint x="225" y="120"/>
                        </Array>
                    </mxGeometry>
                </mxCell>
                <mxCell id="hIb_HigyU_7V9YXV43p2-3" style="edgeStyle=none;html=1;fontSize=10;fillColor=#dae8fc;strokeColor=#6c8ebf;strokeWidth=1.2;" edge="1" parent="hIb_HigyU_7V9YXV43p2-1" source="hIb_HigyU_7V9YXV43p2-4" target="hIb_HigyU_7V9YXV43p2-7">
                    <mxGeometry relative="1" as="geometry">
                        <mxPoint x="74.5" y="240" as="sourcePoint"/>
                        <mxPoint x="614.5" y="240" as="targetPoint"/>
                        <Array as="points">
                            <mxPoint x="165" y="280"/>
                            <mxPoint x="675" y="280"/>
                        </Array>
                    </mxGeometry>
                </mxCell>
                <mxCell id="hIb_HigyU_7V9YXV43p2-4" value="&lt;b&gt;&lt;font data-font-src=&quot;https://fonts.googleapis.com/css?family=Roboto&quot; face=&quot;Roboto&quot;&gt;Service A&lt;/font&gt;&lt;/b&gt;" style="shape=umlLifeline;perimeter=lifelinePerimeter;whiteSpace=wrap;html=1;container=1;collapsible=0;recursiveResize=0;outlineConnect=0;rounded=1;fillColor=#dae8fc;strokeColor=#6c8ebf;strokeWidth=1.3;" vertex="1" parent="hIb_HigyU_7V9YXV43p2-1">
                    <mxGeometry x="25" y="40" width="100" height="280" as="geometry"/>
                </mxCell>
                <mxCell id="hIb_HigyU_7V9YXV43p2-5" style="edgeStyle=none;html=1;fontSize=10;fillColor=#ffe6cc;strokeColor=#d79b00;strokeWidth=1.2;" edge="1" parent="hIb_HigyU_7V9YXV43p2-1" source="hIb_HigyU_7V9YXV43p2-6" target="hIb_HigyU_7V9YXV43p2-4">
                    <mxGeometry relative="1" as="geometry">
                        <mxPoint x="344.5" y="180" as="sourcePoint"/>
                        <mxPoint x="74.5" y="180" as="targetPoint"/>
                        <Array as="points">
                            <mxPoint x="255" y="200"/>
                            <mxPoint x="115" y="200"/>
                        </Array>
                    </mxGeometry>
                </mxCell>
                <mxCell id="hIb_HigyU_7V9YXV43p2-6" value="&lt;b&gt;&lt;font data-font-src=&quot;https://fonts.googleapis.com/css?family=Roboto&quot; face=&quot;Roboto&quot;&gt;Authorization Server&lt;/font&gt;&lt;/b&gt;" style="shape=umlLifeline;perimeter=lifelinePerimeter;whiteSpace=wrap;html=1;container=1;collapsible=0;recursiveResize=0;outlineConnect=0;rounded=1;fillColor=#ffe6cc;strokeColor=#d79b00;strokeWidth=1.3;" vertex="1" parent="hIb_HigyU_7V9YXV43p2-1">
                    <mxGeometry x="360" y="40" width="130" height="280" as="geometry"/>
                </mxCell>
                <mxCell id="hIb_HigyU_7V9YXV43p2-7" value="&lt;b&gt;&lt;font data-font-src=&quot;https://fonts.googleapis.com/css?family=Roboto&quot; face=&quot;Roboto&quot;&gt;Service B&lt;/font&gt;&lt;/b&gt;" style="shape=umlLifeline;perimeter=lifelinePerimeter;whiteSpace=wrap;html=1;container=1;collapsible=0;recursiveResize=0;outlineConnect=0;rounded=1;fillColor=#d5e8d4;strokeColor=#82b366;strokeWidth=1.3;" vertex="1" parent="hIb_HigyU_7V9YXV43p2-1">
                    <mxGeometry x="725" y="40" width="100" height="280" as="geometry"/>
                </mxCell>
                <mxCell id="hIb_HigyU_7V9YXV43p2-8" value="" style="group" vertex="1" connectable="0" parent="hIb_HigyU_7V9YXV43p2-1">
                    <mxGeometry x="80" y="87" width="250" height="30" as="geometry"/>
                </mxCell>
                <mxCell id="hIb_HigyU_7V9YXV43p2-9" value="Pass initilization params" style="text;html=1;align=left;verticalAlign=middle;resizable=0;points=[];autosize=1;strokeColor=none;fillColor=default;fontFamily=Roboto;rounded=1;" vertex="1" parent="hIb_HigyU_7V9YXV43p2-8">
                    <mxGeometry x="20" width="150" height="30" as="geometry"/>
                </mxCell>
                <mxCell id="hIb_HigyU_7V9YXV43p2-10" value="1" style="ellipse;whiteSpace=wrap;html=1;aspect=fixed;rounded=1;fontFamily=Roboto;fontSource=https%3A%2F%2Ffonts.googleapis.com%2Fcss%3Ffamily%3DRoboto;fillColor=#dae8fc;strokeColor=#6c8ebf;fontStyle=1;fontSize=10;" vertex="1" parent="hIb_HigyU_7V9YXV43p2-8">
                    <mxGeometry y="6" width="18" height="18" as="geometry"/>
                </mxCell>
                <mxCell id="hIb_HigyU_7V9YXV43p2-11" value="" style="group" vertex="1" connectable="0" parent="hIb_HigyU_7V9YXV43p2-1">
                    <mxGeometry x="253" y="167" width="170" height="30" as="geometry"/>
                </mxCell>
                <mxCell id="hIb_HigyU_7V9YXV43p2-12" value="Return an &lt;b&gt;access_token&lt;/b&gt;" style="text;html=1;align=left;verticalAlign=middle;resizable=0;points=[];autosize=1;strokeColor=none;fillColor=default;fontFamily=Roboto;rounded=1;" vertex="1" parent="hIb_HigyU_7V9YXV43p2-11">
                    <mxGeometry x="20" width="150" height="30" as="geometry"/>
                </mxCell>
                <mxCell id="hIb_HigyU_7V9YXV43p2-13" value="2" style="ellipse;whiteSpace=wrap;html=1;aspect=fixed;rounded=1;fontFamily=Roboto;fontSource=https%3A%2F%2Ffonts.googleapis.com%2Fcss%3Ffamily%3DRoboto;fillColor=#ffe6cc;strokeColor=#d79b00;fontStyle=1;fontSize=10;" vertex="1" parent="hIb_HigyU_7V9YXV43p2-11">
                    <mxGeometry y="6" width="18" height="18" as="geometry"/>
                </mxCell>
                <mxCell id="hIb_HigyU_7V9YXV43p2-14" value="" style="group;fillColor=none;rounded=1;" vertex="1" connectable="0" parent="hIb_HigyU_7V9YXV43p2-1">
                    <mxGeometry x="80" y="247" width="320" height="30" as="geometry"/>
                </mxCell>
                <mxCell id="hIb_HigyU_7V9YXV43p2-15" value="Access the resource with the &lt;b&gt;access_token&lt;/b&gt; acquired" style="text;html=1;align=left;verticalAlign=middle;resizable=0;points=[];autosize=1;strokeColor=none;fillColor=default;fontFamily=Roboto;rounded=1;" vertex="1" parent="hIb_HigyU_7V9YXV43p2-14">
                    <mxGeometry x="20" width="300" height="30" as="geometry"/>
                </mxCell>
                <mxCell id="hIb_HigyU_7V9YXV43p2-16" value="3" style="ellipse;whiteSpace=wrap;html=1;aspect=fixed;rounded=1;fontFamily=Roboto;fontSource=https%3A%2F%2Ffonts.googleapis.com%2Fcss%3Ffamily%3DRoboto;fillColor=#dae8fc;strokeColor=#6c8ebf;fontStyle=1;fontSize=10;" vertex="1" parent="hIb_HigyU_7V9YXV43p2-14">
                    <mxGeometry y="6" width="18" height="18" as="geometry"/>
                </mxCell>
                <mxCell id="2sh7Kyj2_xwDwqtchspI-3" style="edgeStyle=none;rounded=0;html=1;strokeWidth=1.2;" edge="1" parent="hIb_HigyU_7V9YXV43p2-1" source="hIb_HigyU_7V9YXV43p2-6" target="hIb_HigyU_7V9YXV43p2-6">
                    <mxGeometry relative="1" as="geometry">
                        <Array as="points">
                            <mxPoint x="500" y="150"/>
                        </Array>
                    </mxGeometry>
                </mxCell>
            </root>
        </mxGraphModel>
    </diagram>
    <diagram id="Fk_mHRdqvuXWJL0_7rE6" name="sketches">
        <mxGraphModel dx="1090" dy="762" grid="1" gridSize="10" guides="1" tooltips="1" connect="1" arrows="1" fold="1" page="1" pageScale="1" pageWidth="850" pageHeight="1100" math="0" shadow="0">
            <root>
                <mxCell id="0"/>
                <mxCell id="1" parent="0"/>
                <mxCell id="BXeE8fEvFCZJv8ZX7_1Y-1" value="" style="group;" parent="1" vertex="1" connectable="0">
                    <mxGeometry x="30" y="20" width="250" height="30" as="geometry"/>
                </mxCell>
                <mxCell id="BXeE8fEvFCZJv8ZX7_1Y-2" value="Pass client_id + client_secret to /token" style="text;html=1;align=left;verticalAlign=middle;resizable=0;points=[];autosize=1;strokeColor=none;fillColor=default;fontFamily=Roboto;rounded=1;" parent="BXeE8fEvFCZJv8ZX7_1Y-1" vertex="1">
                    <mxGeometry x="20" width="230" height="30" as="geometry"/>
                </mxCell>
                <mxCell id="BXeE8fEvFCZJv8ZX7_1Y-3" value="1" style="ellipse;whiteSpace=wrap;html=1;aspect=fixed;rounded=1;fontFamily=Roboto;fontSource=https%3A%2F%2Ffonts.googleapis.com%2Fcss%3Ffamily%3DRoboto;fillColor=#dae8fc;strokeColor=#6c8ebf;fontStyle=1;fontSize=10;" parent="BXeE8fEvFCZJv8ZX7_1Y-1" vertex="1">
                    <mxGeometry y="6" width="18" height="18" as="geometry"/>
                </mxCell>
            </root>
        </mxGraphModel>
    </diagram>
</mxfile>